<svg width="24" height="24" viewBox="0 0 24 24" fill="none" xmlns="http://www.w3.org/2000/svg">
<g clip-path="url(#clip0_270_2291)">
<path d="M21.75 10.5C21.75 9.90326 21.5129 9.33097 21.091 8.90901C20.669 8.48705 20.0967 8.25 19.5 8.25H12.75V7.40625C13.3937 7.23904 13.9638 6.86303 14.371 6.33712C14.7782 5.81121 14.9994 5.1651 15 4.5C15 1.875 12.5212 0.195936 12.4163 0.125624C12.293 0.0433947 12.1482 -0.000488281 12 -0.000488281C11.8518 -0.000488281 11.707 0.0433947 11.5837 0.125624C11.4788 0.195936 9 1.875 9 4.5C9.00063 5.1651 9.22185 5.81121 9.629 6.33712C10.0362 6.86303 10.6063 7.23904 11.25 7.40625V8.25H4.5C3.90326 8.25 3.33097 8.48705 2.90901 8.90901C2.48705 9.33097 2.25 9.90326 2.25 10.5V12.6872C2.25077 13.5054 2.51361 14.3018 3 14.9597V18.75C3 19.3467 3.23705 19.919 3.65901 20.341C4.08097 20.7629 4.65326 21 5.25 21H18.75C19.3467 21 19.919 20.7629 20.341 20.341C20.7629 19.919 21 19.3467 21 18.75V14.9597C21.4864 14.3018 21.7492 13.5054 21.75 12.6872V10.5ZM10.5 4.5C10.5 3.22781 11.4375 2.20687 12 1.70719C12.5625 2.20687 13.5 3.22781 13.5 4.5C13.5 4.89782 13.342 5.27935 13.0607 5.56066C12.7794 5.84196 12.3978 6 12 6C11.6022 6 11.2206 5.84196 10.9393 5.56066C10.658 5.27935 10.5 4.89782 10.5 4.5ZM3.75 10.5C3.75 10.3011 3.82902 10.1103 3.96967 9.96967C4.11032 9.82902 4.30109 9.75 4.5 9.75H19.5C19.6989 9.75 19.8897 9.82902 20.0303 9.96967C20.171 10.1103 20.25 10.3011 20.25 10.5V12.6872C20.25 13.9294 19.2694 14.9663 18.0637 14.9991C17.763 15.0076 17.4637 14.9557 17.1833 14.8465C16.903 14.7373 16.6474 14.573 16.4317 14.3633C16.216 14.1537 16.0445 13.9028 15.9274 13.6257C15.8103 13.3486 15.75 13.0508 15.75 12.75C15.75 12.5511 15.671 12.3603 15.5303 12.2197C15.3897 12.079 15.1989 12 15 12C14.8011 12 14.6103 12.079 14.4697 12.2197C14.329 12.3603 14.25 12.5511 14.25 12.75C14.25 13.3467 14.0129 13.919 13.591 14.341C13.169 14.7629 12.5967 15 12 15C11.4033 15 10.831 14.7629 10.409 14.341C9.98705 13.919 9.75 13.3467 9.75 12.75C9.75 12.5511 9.67098 12.3603 9.53033 12.2197C9.38968 12.079 9.19891 12 9 12C8.80109 12 8.61032 12.079 8.46967 12.2197C8.32902 12.3603 8.25 12.5511 8.25 12.75C8.25012 13.0509 8.18988 13.3488 8.07284 13.626C7.9558 13.9032 7.78434 14.1542 7.56861 14.364C7.35288 14.5737 7.09726 14.7381 6.81688 14.8474C6.53649 14.9566 6.23705 15.0085 5.93625 15C4.73062 14.9662 3.75 13.9294 3.75 12.6872V10.5ZM18.75 19.5H5.25C5.05109 19.5 4.86032 19.421 4.71967 19.2803C4.57902 19.1397 4.5 18.9489 4.5 18.75V16.1775C4.93902 16.3764 5.41322 16.4861 5.895 16.5C6.39624 16.5156 6.89545 16.4297 7.36266 16.2475C7.82986 16.0653 8.25541 15.7905 8.61375 15.4397C8.75366 15.3033 8.88279 15.1563 9 15C9.3493 15.4657 9.80224 15.8437 10.3229 16.1041C10.8437 16.3645 11.4178 16.5 12 16.5C12.5822 16.5 13.1563 16.3645 13.6771 16.1041C14.1978 15.8437 14.6507 15.4657 15 15C15.1176 15.1557 15.247 15.3021 15.3872 15.4378C16.0849 16.1212 17.0234 16.5027 18 16.5C18.0356 16.5 18.0712 16.5 18.1069 16.5C18.588 16.4858 19.0616 16.3762 19.5 16.1775V18.75C19.5 18.9489 19.421 19.1397 19.2803 19.2803C19.1397 19.421 18.9489 19.5 18.75 19.5Z" fill="#09101D"/>
</g>
<defs>
<clipPath id="clip0_270_2291">
<rect width="24" height="24" fill="white"/>
</clipPath>
</defs>
</svg>
